<svg id="Layer_1" data-name="Layer 1" xmlns="http://www.w3.org/2000/svg" width="262.5" height="200" viewBox="0 0 262.5 200"><defs><style>.cls-1{fill:#020203;}</style></defs><path d="M247.8,34.36a24.41,24.41,0,0,0-.57-6.14,20.32,20.32,0,0,0-1.29-3.54,1.35,1.35,0,0,0-.17-.34c-.12-.24-.24-.5-.39-.75a1.15,1.15,0,0,1,.1.78.94.94,0,0,1,.15.3.77.77,0,0,1,.12.24,20.63,20.63,0,0,1,1.2,3.37,24.09,24.09,0,0,1,.55,6.08q.06,66.11,0,132.23c0,11.11-7.22,18.38-18.4,18.4q-49,.06-97.94,0-48.83,0-97.67,0c-9.29,0-15.79-4.75-18-13.21a23.54,23.54,0,0,1-.57-5.81q0-66,0-132a21.9,21.9,0,0,1,1.77-9,1.69,1.69,0,0,1,.1-.27,1.34,1.34,0,0,1,.12-.24l0,0a1.55,1.55,0,0,1-.18-.15.93.93,0,0,1-.1.25,2,2,0,0,0-.09.25A21.8,21.8,0,0,0,14.65,34c0,42.89,0,87.29,0,132a23,23,0,0,0,.57,5.89c2.26,8.51,8.91,13.39,18.27,13.41h152.1q21.75,0,43.53,0c11.34,0,18.67-7.33,18.67-18.65C247.82,123.24,247.82,78.43,247.8,34.36Zm-2.39-10.77a9.71,9.71,0,0,0-1.51-2.29A16.8,16.8,0,0,1,245.41,23.59Zm-10.95-8.17A17.16,17.16,0,0,1,241.62,19C238.94,16.54,235.74,14.62,234.46,15.42ZM28,15.71l.36-.08a1.22,1.22,0,0,1,.38-.07h0A22.21,22.21,0,0,1,33.88,15q97.41,0,194.86,0a24.48,24.48,0,0,1,4.87.46l.32.06a1.28,1.28,0,0,1,.32.09.26.26,0,0,1,.09-.09l.14-.12a1.71,1.71,0,0,0-.3-.09,2.27,2.27,0,0,0-.3-.06,23.33,23.33,0,0,0-5.12-.52H33.87a25,25,0,0,0-5.48.59l-.39.1a2.82,2.82,0,0,0-.46.11,1.06,1.06,0,0,1,.25.09C27.85,15.65,27.91,15.7,28,15.71Z"/><path class="cls-1" d="M247.8,34.36a24.41,24.41,0,0,0-.57-6.14,20.32,20.32,0,0,0-1.29-3.54,1.35,1.35,0,0,0-.17-.34c-.12-.24-.24-.5-.39-.75a1.15,1.15,0,0,1,.1.78.07.07,0,0,1,0,.1.71.71,0,0,1-.15.15.44.44,0,0,1,.1.24.68.68,0,0,1,.12.24,19.62,19.62,0,0,1,1.14,3.24,23.94,23.94,0,0,1,.57,6c0,44.07,0,88.88,0,132.23,0,11-7.13,18.12-18.14,18.12q-35.35,0-70.74,0H33.53c-9.11,0-15.58-4.75-17.77-13a23.17,23.17,0,0,1-.54-5.75c0-44.67,0-89.09,0-132a21.84,21.84,0,0,1,1.69-8.88.64.64,0,0,1,.12-.25,1.86,1.86,0,0,1,.1-.25l-.17-.17,0,0a1,1,0,0,1-.17-.15c0,.09-.07.18-.1.25a1.18,1.18,0,0,0-.1.25A21.8,21.8,0,0,0,14.66,34c0,42.89,0,87.29,0,132a23,23,0,0,0,.57,5.89c2.25,8.51,8.9,13.39,18.26,13.41h152.1q21.75,0,43.53,0c11.34,0,18.67-7.33,18.67-18.65C247.82,123.24,247.82,78.43,247.8,34.36ZM28,15.71a2.12,2.12,0,0,1,.3.18l.33-.07a1.35,1.35,0,0,1,.34-.06,23.43,23.43,0,0,1,4.93-.48H228.73a25.14,25.14,0,0,1,4.63.42c.1,0,.21,0,.31.06h0a1.49,1.49,0,0,1,.3.09,2.09,2.09,0,0,1,.23-.21s.07-.06.09-.09a1.82,1.82,0,0,1,.15-.12c-.1,0-.21-.06-.31-.09l-.3-.06a23.17,23.17,0,0,0-5.11-.52H33.87a25,25,0,0,0-5.48.59l-.39.1a4.46,4.46,0,0,0-.46.11,1.06,1.06,0,0,1,.25.09C27.85,15.65,27.91,15.7,28,15.71ZM247.8,34.36a24.41,24.41,0,0,0-.57-6.14,20.32,20.32,0,0,0-1.29-3.54,1.35,1.35,0,0,0-.17-.34c-.12-.24-.24-.5-.39-.75a1.15,1.15,0,0,1,.1.78.07.07,0,0,1,0,.1.71.71,0,0,1-.15.15.44.44,0,0,1,.1.24.68.68,0,0,1,.12.24,19.62,19.62,0,0,1,1.14,3.24,23.94,23.94,0,0,1,.57,6c0,44.07,0,88.88,0,132.23,0,11-7.13,18.12-18.14,18.12q-35.35,0-70.74,0H33.53c-9.11,0-15.58-4.75-17.77-13a23.17,23.17,0,0,1-.54-5.75c0-44.67,0-89.09,0-132a21.84,21.84,0,0,1,1.69-8.88.64.64,0,0,1,.12-.25,1.86,1.86,0,0,1,.1-.25l-.17-.17,0,0a1,1,0,0,1-.17-.15c0,.09-.07.18-.1.25a1.18,1.18,0,0,0-.1.25A21.8,21.8,0,0,0,14.66,34c0,42.89,0,87.29,0,132a23,23,0,0,0,.57,5.89c2.25,8.51,8.9,13.39,18.26,13.41h152.1q21.75,0,43.53,0c11.34,0,18.67-7.33,18.67-18.65C247.82,123.24,247.82,78.43,247.8,34.36ZM28,15.71a2.12,2.12,0,0,1,.3.18l.33-.07a1.35,1.35,0,0,1,.34-.06,23.43,23.43,0,0,1,4.93-.48H228.73a25.14,25.14,0,0,1,4.63.42c.1,0,.21,0,.31.06h0a1.49,1.49,0,0,1,.3.09,2.09,2.09,0,0,1,.23-.21s.07-.06.09-.09a1.82,1.82,0,0,1,.15-.12c-.1,0-.21-.06-.31-.09l-.3-.06a23.17,23.17,0,0,0-5.11-.52H33.87a25,25,0,0,0-5.48.59l-.39.1a4.46,4.46,0,0,0-.46.11,1.06,1.06,0,0,1,.25.09C27.85,15.65,27.91,15.7,28,15.71ZM247.8,34.36a24.41,24.41,0,0,0-.57-6.14,20.32,20.32,0,0,0-1.29-3.54,1.35,1.35,0,0,0-.17-.34c-.12-.24-.24-.5-.39-.75a1.15,1.15,0,0,1,.1.78.07.07,0,0,1,0,.1.71.71,0,0,1-.15.15.44.44,0,0,1,.1.24.68.68,0,0,1,.12.24,19.62,19.62,0,0,1,1.14,3.24,23.94,23.94,0,0,1,.57,6c0,44.07,0,88.88,0,132.23,0,11-7.13,18.12-18.14,18.12q-35.35,0-70.74,0H33.53c-9.11,0-15.58-4.75-17.77-13a23.17,23.17,0,0,1-.54-5.75c0-44.67,0-89.09,0-132a21.84,21.84,0,0,1,1.69-8.88.64.64,0,0,1,.12-.25,1.86,1.86,0,0,1,.1-.25l-.17-.17,0,0a1,1,0,0,1-.17-.15c0,.09-.07.18-.1.25a1.18,1.18,0,0,0-.1.25A21.8,21.8,0,0,0,14.66,34c0,42.89,0,87.29,0,132a23,23,0,0,0,.57,5.89c2.25,8.51,8.9,13.39,18.26,13.41h152.1q21.75,0,43.53,0c11.34,0,18.67-7.33,18.67-18.65C247.82,123.24,247.82,78.43,247.8,34.36ZM28,15.71a2.12,2.12,0,0,1,.3.18l.33-.07a1.35,1.35,0,0,1,.34-.06,23.43,23.43,0,0,1,4.93-.48H228.73a25.14,25.14,0,0,1,4.63.42c.1,0,.21,0,.31.06h0a1.49,1.49,0,0,1,.3.09,2.09,2.09,0,0,1,.23-.21s.07-.06.09-.09a1.82,1.82,0,0,1,.15-.12c-.1,0-.21-.06-.31-.09l-.3-.06a23.17,23.17,0,0,0-5.11-.52H33.87a25,25,0,0,0-5.48.59l-.39.1a4.46,4.46,0,0,0-.46.11,1.06,1.06,0,0,1,.25.09C27.85,15.65,27.91,15.7,28,15.71Z"/><path d="M27.79,15.63l-.25-.09a3.43,3.43,0,0,1,.46-.11,1.63,1.63,0,0,1,.33.18c.12.07.19.13.21.13l.06.06c5.86,5.11,25.83,24.58,31.53,29.68q34.78,31.13,69.55,62.27c.51.45,1,.87,1.72,1.44,4.84-4.34,9.66-8.63,14.46-12.94,23.95-21.53,63.69-58.81,87.81-80.5h0l.21-.21c.06-.06.15-.12.21-.19l0,0a1.21,1.21,0,0,1,.31.09.89.89,0,0,0-.15.12.25.25,0,0,0-.09.09,1.46,1.46,0,0,0-.23.21c-11.88,10.67-27.85,25.42-43.29,39.69-16,14.74-32.48,30-44.66,40.92-3.25,2.91-6.49,5.8-9.72,8.71l-4.91,4.39-.17-.15-.66-.52c-.39-.31-.73-.61-1.08-.91L60,45.69C57.32,43.34,51.67,38,45.7,32.24c-7-6.67-14.2-13.56-17.32-16.27a.44.44,0,0,1-.1-.08l-.3-.18A1.08,1.08,0,0,1,27.79,15.63Z"/><path d="M241.62,19a17.53,17.53,0,0,0-7.16-3.54C235.74,14.62,238.94,16.54,241.62,19Z"/><path d="M243.88,21.3a9.11,9.11,0,0,1,1.51,2.29A13.74,13.74,0,0,0,243.88,21.3Z"/><path d="M245.78,24.34a.57.57,0,0,1-.06.25s0,0-.07.06a.62.62,0,0,1-.18.19l0,0c-4.08,3.83-24,23.26-28.15,27Q192,74.56,166.63,97.26l-1.15,1-10.92,9.87c-5.65,5.07-11.22,10.08-16.79,15-4.76,4.24-8,4.21-12.72,0-5.32-4.78-10.67-9.56-16.22-14.52L98,99c-1.07-1-1.78-1.66-2.52-2.31Q65.54,70,35.59,43.18C34.87,42.55,19.22,27,17,24.85l-.19-.18,0,0s-.08-.06-.15-.13a1,1,0,0,0,.1-.24l.18.15,0,0,.18.18c.69.66,3.15,3.12,6.2,6.13C28.67,36,35.29,42.6,35.79,43Q65.7,69.78,95.67,96.53c.45.42.92.87,1.49,1.39l1,.94,15.76,14c3.83,3.41,7.58,6.76,11.31,10.13,4.6,4.12,7.72,4.12,12.36,0q5.87-5.23,11.73-10.5l5.08-4.54,11.31-10.23c.31-.25.54-.46.78-.67l5.34-4.8Q194.52,72,217.16,51.67c2.55-2.29,11.31-10.76,18.35-17.56,4.45-4.29,8.27-8,9.83-9.42l0,0a.43.43,0,0,0,.15-.15.08.08,0,0,0,0-.09,1.2,1.2,0,0,0-.09-.78C245.55,23.84,245.68,24.1,245.78,24.34Z"/><path class="cls-1" d="M245.78,24.34a7.72,7.72,0,0,0-.39-.75,1.09,1.09,0,0,1,.1.78.07.07,0,0,1,0,.1.71.71,0,0,1-.15.15l0,0c-1.56,1.44-5.38,5.14-9.83,9.43-7,6.79-15.8,15.25-18.35,17.55q-22.66,20.31-45.31,40.62l-5.35,4.8a10.07,10.07,0,0,1-.78.67L154.36,108l-5.08,4.54c-3.94,3.52-7.82,7-11.74,10.5-4.63,4.13-7.74,4.13-12.35,0-3.73-3.36-7.47-6.71-11.31-10.12L98.12,98.82l-1-.94c-.57-.52-1-1-1.5-1.38L35.72,43c-.48-.42-7.1-7-12.44-12.27l-6.2-6.13-.18-.17,0,0s-.11-.09-.17-.15a1.09,1.09,0,0,1-.1.25,2.6,2.6,0,0,0-.1.25l.07.06.12.12s.1.09.17.17c.84.85,3.31,3.25,6.07,6,5.35,5.3,12,11.88,12.46,12.31L95.26,96.88c.48.42.94.87,1.5,1.36l1,1,10.84,9.63,4.94,4.4c3.81,3.4,7.55,6.76,11.3,10.1,2.4,2.17,4.45,3.24,6.5,3.24s4.13-1.07,6.55-3.24q5.88-5.2,11.73-10.47l16-14.42.39-.36c.32-.27.55-.46.78-.67l5.35-4.8Q194.8,72.28,217.45,52c2.56-2.29,11.31-10.78,18.37-17.57,4.39-4.24,8.19-7.92,9.75-9.37l.06-.06a1.88,1.88,0,0,0,.15-.12.51.51,0,0,0,.15-.19s0,0,0,0A3.53,3.53,0,0,0,245.78,24.34ZM28,15.71a2.12,2.12,0,0,1,.3.18.44.44,0,0,0,.1.08c3.12,2.71,10.34,9.6,17.32,16.27C51.67,38,57.31,43.34,60,45.69L129.51,108c.33.3.67.6,1.07.91l.66.52.17.14,4.91-4.38q4.86-4.37,9.72-8.72c12.18-10.94,28.69-26.17,44.66-40.91,15.45-14.26,31.43-29,43.29-39.7l.23-.21.09-.08.15-.13-.31-.08a2.27,2.27,0,0,0-.3-.06,1.17,1.17,0,0,0-.24.21l-.24.21c-11.85,10.67-27.7,25.29-43,39.43-16,14.75-32.47,30-44.66,40.94-3.22,2.91-6.46,5.78-9.72,8.69l-4.54,4.09a4.93,4.93,0,0,1-.49-.39l-1.07-.87L60.31,45.29C57.69,42.94,52,37.56,46.06,31.85,39.23,25.32,32.16,18.56,29,15.75a1,1,0,0,1-.21-.19h0s-.17-.12-.3-.23l-.4.1a2.21,2.21,0,0,0-.46.11.75.75,0,0,1,.25.09A.89.89,0,0,0,28,15.71Z"/><path d="M262.41,32.83A34.83,34.83,0,0,0,260.66,22C256.2,8.43,244,0,228.84,0H33.62c-1,0-2,0-3,.1C17.62,1.21,8.3,7.68,2.85,19.32a38,38,0,0,0-2,6.13c-.23.92-.5,1.89-.78,2.83L0,171.63l0,.06c.07.31.15.64.25.94.18.66.36,1.31.51,2C4.42,190,17.24,200,33.42,200q37.1,0,74.17,0h57c8.88,0,17.89,0,26.95,0,12.58,0,25.27,0,37.84,0,18.85,0,33.11-14.14,33.12-32.81C262.53,117.05,262.51,73.11,262.41,32.83ZM28,15.44l.39-.1a25,25,0,0,1,5.48-.59H228.73a23.92,23.92,0,0,1,5.11.52,2.27,2.27,0,0,1,.3.06,1.21,1.21,0,0,1,.31.09h0a.89.89,0,0,0-.15.12.25.25,0,0,0-.09.09,1.46,1.46,0,0,0-.23.21c-11.88,10.67-27.85,25.42-43.29,39.69-16,14.74-32.48,30-44.66,40.92-3.25,2.91-6.49,5.8-9.72,8.71l-4.91,4.39-.17-.15-.66-.52c-.39-.31-.73-.61-1.08-.91L60,45.69C57.32,43.34,51.67,38,45.7,32.24c-7-6.67-14.2-13.56-17.32-16.27a.44.44,0,0,1-.1-.08l-.3-.18-.18-.08-.25-.09A3.09,3.09,0,0,1,28,15.44Zm201.15,169.8q-21.75,0-43.53,0H33.53c-9.36,0-16-4.9-18.26-13.41A23,23,0,0,1,14.7,166c0-44.67,0-89.09,0-132a21.8,21.8,0,0,1,1.86-9.24,1.86,1.86,0,0,1,.1-.25.87.87,0,0,0,.1-.25,2,2,0,0,0,.17.15l0,0,.17.17c.7.67,3.16,3.12,6.21,6.13C28.64,36,35.26,42.58,35.76,43Q65.69,69.78,95.64,96.52l1.5,1.39,1,.94,15.76,14c3.82,3.41,7.58,6.76,11.3,10.13,4.61,4.12,7.73,4.12,12.36,0l11.74-10.5L154.4,108l11.3-10.22c.31-.25.55-.46.78-.67l5.35-4.81Q194.5,72,217.14,51.66c2.55-2.29,11.3-10.76,18.35-17.56,4.44-4.3,8.27-8,9.83-9.42l0,0a.71.71,0,0,0,.15-.15.11.11,0,0,0,0-.1,1.3,1.3,0,0,0-.1-.78,15.9,15.9,0,0,0-1.51-2.29,9.11,9.11,0,0,1,1.51,2.29,6.73,6.73,0,0,1,.38.76,1.35,1.35,0,0,1,.18.33,21.74,21.74,0,0,1,1.29,3.54,25,25,0,0,1,.57,6.15c0,44.06,0,88.88,0,132.23C247.82,177.92,240.5,185.24,229.15,185.24Z"/></svg>