<?xml version="1.0" encoding="utf-8"?>
<!-- Generator: Adobe Illustrator 24.3.0, SVG Export Plug-In . SVG Version: 6.00 Build 0)  -->
<svg version="1.1" id="Layer_1" xmlns="http://www.w3.org/2000/svg" xmlns:xlink="http://www.w3.org/1999/xlink" x="0px" y="0px"
	 viewBox="0 0 379.91 322.72" style="enable-background:new 0 0 379.91 322.72;" xml:space="preserve">
<style type="text/css">
	.st0{fill:#020203;}
</style>
<g>
	<g>
		<g>
			<path d="M294.49,118.15c0-1.55-0.03-3.35-0.46-4.96c-0.27-1.02-0.61-1.97-1.04-2.86c-0.03-0.08-0.07-0.19-0.14-0.27
				c-0.09-0.2-0.19-0.41-0.31-0.61c0.1,0.27,0.14,0.48,0.08,0.63c0.05,0.07,0.1,0.15,0.12,0.24c0.05,0.07,0.08,0.14,0.1,0.2
				c0.39,0.85,0.71,1.75,0.97,2.72c0.41,1.56,0.44,3.26,0.44,4.91c0.03,35.59,0.02,71.18,0.02,106.79c0,8.97-5.83,14.84-14.86,14.86
				c-26.36,0.03-52.74,0.02-79.1,0.02c-26.29,0-52.59,0-78.88-0.02c-7.5,0-12.75-3.84-14.55-10.67c-0.39-1.5-0.46-3.13-0.46-4.69
				c-0.02-35.52-0.02-71.06,0-106.59c0-2.77,0.49-5.24,1.43-7.31c0.02-0.08,0.05-0.15,0.08-0.22c0.03-0.07,0.05-0.12,0.1-0.19
				l-0.03-0.03c-0.03-0.03-0.09-0.07-0.14-0.12c-0.02,0.07-0.05,0.14-0.08,0.2c-0.03,0.07-0.07,0.14-0.08,0.2
				c-0.99,2.14-1.5,4.64-1.5,7.46c-0.02,34.64,0,70.5,0.02,106.59c0,1.55,0.05,3.21,0.46,4.76c1.82,6.87,7.19,10.81,14.75,10.83
				h122.84c11.71,0,23.44,0,35.15-0.02c9.16,0,15.08-5.92,15.08-15.06C294.51,189.93,294.51,153.74,294.49,118.15z M292.56,109.45
				c-0.19-0.46-0.59-1.1-1.22-1.85C291.79,108.17,292.2,108.79,292.56,109.45z M283.72,102.85c2.24,0.54,4.18,1.51,5.78,2.86
				C287.34,103.76,284.75,102.21,283.72,102.85z M116.96,103.09c0.08-0.03,0.19-0.05,0.29-0.07c0.1-0.03,0.2-0.05,0.31-0.05
				c0.02,0,0.02,0,0.02,0c1.29-0.31,2.67-0.44,4.15-0.44c52.45-0.02,104.92-0.02,157.37,0c1.39,0,2.7,0.12,3.93,0.37
				c0.09,0.02,0.17,0.03,0.26,0.05s0.17,0.03,0.26,0.07c0.02-0.03,0.05-0.05,0.07-0.07c0.02-0.02,0.05-0.05,0.12-0.1
				c-0.08-0.03-0.17-0.05-0.25-0.07c-0.07-0.02-0.15-0.03-0.24-0.05c-1.29-0.29-2.67-0.42-4.13-0.42H121.72
				c-1.58,0-3.06,0.17-4.42,0.48c-0.12,0.03-0.22,0.05-0.32,0.08c-0.14,0.02-0.25,0.05-0.37,0.09c0.07,0.02,0.14,0.03,0.2,0.07
				C116.86,103.04,116.91,103.08,116.96,103.09z"/>
			<path class="st0" d="M294.49,118.15c0-1.55-0.03-3.35-0.46-4.96c-0.27-1.02-0.61-1.97-1.04-2.86c-0.03-0.08-0.07-0.19-0.14-0.27
				c-0.09-0.2-0.19-0.41-0.31-0.61c0.1,0.27,0.14,0.48,0.08,0.63c0.02,0.03,0,0.07-0.02,0.08c-0.03,0.05-0.07,0.08-0.12,0.12
				c0.05,0.07,0.08,0.14,0.08,0.2c0.05,0.07,0.08,0.12,0.1,0.19c0.37,0.82,0.68,1.68,0.92,2.62c0.42,1.58,0.46,3.33,0.46,4.86
				c0.02,35.59,0.02,71.78,0.02,106.79c0,8.89-5.76,14.63-14.65,14.63c-19.04,0.03-38.09,0.02-57.13,0.02H121.45
				c-7.36-0.02-12.58-3.84-14.35-10.52c-0.39-1.5-0.44-3.11-0.44-4.64c-0.02-36.08-0.03-71.95-0.02-106.59
				c0-2.72,0.46-5.13,1.36-7.17c0.02-0.07,0.05-0.14,0.1-0.2c0.02-0.07,0.05-0.14,0.08-0.2l-0.14-0.14l-0.03-0.03
				c-0.03-0.03-0.09-0.07-0.14-0.12c-0.02,0.07-0.05,0.14-0.08,0.2c-0.03,0.07-0.07,0.14-0.08,0.2c-0.99,2.14-1.5,4.64-1.5,7.46
				c-0.02,34.64,0,70.5,0.02,106.59c0,1.55,0.05,3.21,0.46,4.76c1.82,6.87,7.19,10.81,14.75,10.83h122.84
				c11.71,0,23.44,0,35.15-0.02c9.16,0,15.08-5.92,15.08-15.06C294.51,189.93,294.51,153.74,294.49,118.15z M116.96,103.09
				c0.1,0.05,0.19,0.1,0.24,0.14c0.08-0.02,0.19-0.03,0.27-0.05c0.08-0.03,0.19-0.05,0.27-0.05c1.24-0.27,2.57-0.39,3.98-0.39
				h157.37c1.33,0,2.58,0.12,3.74,0.34c0.08,0.02,0.17,0.03,0.25,0.05h0.02c0.08,0.02,0.17,0.03,0.24,0.07
				c0.07-0.07,0.12-0.12,0.19-0.17c0.02-0.03,0.05-0.05,0.07-0.07c0.02-0.02,0.05-0.05,0.12-0.1c-0.08-0.03-0.17-0.05-0.25-0.07
				c-0.07-0.02-0.15-0.03-0.24-0.05c-1.29-0.29-2.67-0.42-4.13-0.42H121.72c-1.58,0-3.06,0.17-4.42,0.48
				c-0.12,0.03-0.22,0.05-0.32,0.08c-0.14,0.02-0.25,0.05-0.37,0.09c0.07,0.02,0.14,0.03,0.2,0.07
				C116.86,103.04,116.91,103.08,116.96,103.09z M294.49,118.15c0-1.55-0.03-3.35-0.46-4.96c-0.27-1.02-0.61-1.97-1.04-2.86
				c-0.03-0.08-0.07-0.19-0.14-0.27c-0.09-0.2-0.19-0.41-0.31-0.61c0.1,0.27,0.14,0.48,0.08,0.63c0.02,0.03,0,0.07-0.02,0.08
				c-0.03,0.05-0.07,0.08-0.12,0.12c0.05,0.07,0.08,0.14,0.08,0.2c0.05,0.07,0.08,0.12,0.1,0.19c0.37,0.82,0.68,1.68,0.92,2.62
				c0.42,1.58,0.46,3.33,0.46,4.86c0.02,35.59,0.02,71.78,0.02,106.79c0,8.89-5.76,14.63-14.65,14.63
				c-19.04,0.03-38.09,0.02-57.13,0.02H121.45c-7.36-0.02-12.58-3.84-14.35-10.52c-0.39-1.5-0.44-3.11-0.44-4.64
				c-0.02-36.08-0.03-71.95-0.02-106.59c0-2.72,0.46-5.13,1.36-7.17c0.02-0.07,0.05-0.14,0.1-0.2c0.02-0.07,0.05-0.14,0.08-0.2
				l-0.14-0.14l-0.03-0.03c-0.03-0.03-0.09-0.07-0.14-0.12c-0.02,0.07-0.05,0.14-0.08,0.2c-0.03,0.07-0.07,0.14-0.08,0.2
				c-0.99,2.14-1.5,4.64-1.5,7.46c-0.02,34.64,0,70.5,0.02,106.59c0,1.55,0.05,3.21,0.46,4.76c1.82,6.87,7.19,10.81,14.75,10.83
				h122.84c11.71,0,23.44,0,35.15-0.02c9.16,0,15.08-5.92,15.08-15.06C294.51,189.93,294.51,153.74,294.49,118.15z M116.96,103.09
				c0.1,0.05,0.19,0.1,0.24,0.14c0.08-0.02,0.19-0.03,0.27-0.05c0.08-0.03,0.19-0.05,0.27-0.05c1.24-0.27,2.57-0.39,3.98-0.39
				h157.37c1.33,0,2.58,0.12,3.74,0.34c0.08,0.02,0.17,0.03,0.25,0.05h0.02c0.08,0.02,0.17,0.03,0.24,0.07
				c0.07-0.07,0.12-0.12,0.19-0.17c0.02-0.03,0.05-0.05,0.07-0.07c0.02-0.02,0.05-0.05,0.12-0.1c-0.08-0.03-0.17-0.05-0.25-0.07
				c-0.07-0.02-0.15-0.03-0.24-0.05c-1.29-0.29-2.67-0.42-4.13-0.42H121.72c-1.58,0-3.06,0.17-4.42,0.48
				c-0.12,0.03-0.22,0.05-0.32,0.08c-0.14,0.02-0.25,0.05-0.37,0.09c0.07,0.02,0.14,0.03,0.2,0.07
				C116.86,103.04,116.91,103.08,116.96,103.09z M294.49,118.15c0-1.55-0.03-3.35-0.46-4.96c-0.27-1.02-0.61-1.97-1.04-2.86
				c-0.03-0.08-0.07-0.19-0.14-0.27c-0.09-0.2-0.19-0.41-0.31-0.61c0.1,0.27,0.14,0.48,0.08,0.63c0.02,0.03,0,0.07-0.02,0.08
				c-0.03,0.05-0.07,0.08-0.12,0.12c0.05,0.07,0.08,0.14,0.08,0.2c0.05,0.07,0.08,0.12,0.1,0.19c0.37,0.82,0.68,1.68,0.92,2.62
				c0.42,1.58,0.46,3.33,0.46,4.86c0.02,35.59,0.02,71.78,0.02,106.79c0,8.89-5.76,14.63-14.65,14.63
				c-19.04,0.03-38.09,0.02-57.13,0.02H121.45c-7.36-0.02-12.58-3.84-14.35-10.52c-0.39-1.5-0.44-3.11-0.44-4.64
				c-0.02-36.08-0.03-71.95-0.02-106.59c0-2.72,0.46-5.13,1.36-7.17c0.02-0.07,0.05-0.14,0.1-0.2c0.02-0.07,0.05-0.14,0.08-0.2
				l-0.14-0.14l-0.03-0.03c-0.03-0.03-0.09-0.07-0.14-0.12c-0.02,0.07-0.05,0.14-0.08,0.2c-0.03,0.07-0.07,0.14-0.08,0.2
				c-0.99,2.14-1.5,4.64-1.5,7.46c-0.02,34.64,0,70.5,0.02,106.59c0,1.55,0.05,3.21,0.46,4.76c1.82,6.87,7.19,10.81,14.75,10.83
				h122.84c11.71,0,23.44,0,35.15-0.02c9.16,0,15.08-5.92,15.08-15.06C294.51,189.93,294.51,153.74,294.49,118.15z M116.96,103.09
				c0.1,0.05,0.19,0.1,0.24,0.14c0.08-0.02,0.19-0.03,0.27-0.05c0.08-0.03,0.19-0.05,0.27-0.05c1.24-0.27,2.57-0.39,3.98-0.39
				h157.37c1.33,0,2.58,0.12,3.74,0.34c0.08,0.02,0.17,0.03,0.25,0.05h0.02c0.08,0.02,0.17,0.03,0.24,0.07
				c0.07-0.07,0.12-0.12,0.19-0.17c0.02-0.03,0.05-0.05,0.07-0.07c0.02-0.02,0.05-0.05,0.12-0.1c-0.08-0.03-0.17-0.05-0.25-0.07
				c-0.07-0.02-0.15-0.03-0.24-0.05c-1.29-0.29-2.67-0.42-4.13-0.42H121.72c-1.58,0-3.06,0.17-4.42,0.48
				c-0.12,0.03-0.22,0.05-0.32,0.08c-0.14,0.02-0.25,0.05-0.37,0.09c0.07,0.02,0.14,0.03,0.2,0.07
				C116.86,103.04,116.91,103.08,116.96,103.09z"/>
		</g>
		<g>
			<path d="M116.81,103.02c-0.07-0.03-0.14-0.05-0.2-0.07c0.12-0.03,0.24-0.07,0.37-0.09c0.12,0.05,0.2,0.1,0.27,0.15
				c0.1,0.05,0.15,0.1,0.17,0.1l0.05,0.05c4.73,4.13,20.86,19.85,25.46,23.97c18.73,16.76,37.44,33.53,56.17,50.29
				c0.41,0.36,0.85,0.7,1.39,1.16c3.91-3.5,7.8-6.97,11.68-10.45c19.34-17.39,51.43-47.49,70.91-65.01h0.02
				c0.07-0.07,0.12-0.12,0.17-0.17c0.05-0.05,0.12-0.1,0.17-0.15c0,0,0,0,0.02-0.02c0.08,0.02,0.17,0.03,0.25,0.07
				c-0.07,0.05-0.1,0.08-0.12,0.1c-0.02,0.02-0.05,0.03-0.07,0.07c-0.07,0.05-0.12,0.1-0.19,0.17
				c-9.59,8.62-22.49,20.53-34.96,32.06c-12.9,11.9-26.23,24.2-36.07,33.04c-2.62,2.35-5.24,4.69-7.85,7.04l-3.96,3.54l-0.14-0.12
				c-0.19-0.15-0.36-0.29-0.53-0.42c-0.32-0.25-0.59-0.49-0.87-0.73L142.8,127.3c-2.14-1.9-6.7-6.25-11.52-10.86
				c-5.64-5.39-11.47-10.95-13.99-13.14c0,0-0.03-0.02-0.08-0.07c-0.05-0.03-0.14-0.08-0.24-0.14
				C116.91,103.08,116.86,103.04,116.81,103.02z"/>
			<path d="M289.5,105.71c-1.6-1.34-3.54-2.31-5.78-2.86C284.75,102.21,287.34,103.76,289.5,105.71z"/>
			<path d="M291.33,107.6c0.63,0.75,1.04,1.39,1.22,1.85C292.2,108.79,291.79,108.17,291.33,107.6z"/>
			<path d="M292.86,110.06c0,0.08-0.02,0.15-0.05,0.2c-0.02,0.02-0.02,0.03-0.05,0.05c-0.07,0.1-0.14,0.14-0.15,0.15l-0.02,0.02
				c-3.3,3.09-19.41,18.78-22.74,21.77c-13.63,12.24-27.28,24.46-40.91,36.7c-0.25,0.22-0.51,0.44-0.93,0.82l-8.82,7.97
				c-4.56,4.1-9.06,8.14-13.56,12.15c-3.84,3.42-6.49,3.4-10.27,0c-4.3-3.86-8.62-7.72-13.1-11.73l-8.75-7.78
				c-0.87-0.8-1.44-1.34-2.04-1.87c-16.11-14.41-32.23-28.83-48.36-43.24c-0.58-0.51-13.22-13.07-14.99-14.8l-0.15-0.15
				c-0.02-0.02-0.03-0.03-0.03-0.03c-0.02-0.02-0.07-0.05-0.12-0.1c0.03-0.07,0.07-0.14,0.08-0.2c0.05,0.05,0.1,0.08,0.14,0.12
				l0.03,0.03l0.14,0.14c0.56,0.54,2.55,2.52,5.01,4.95c4.3,4.27,9.65,9.57,10.05,9.91c16.11,14.41,32.23,28.81,48.36,43.22
				c0.37,0.34,0.75,0.7,1.21,1.12l0.82,0.76l12.73,11.34c3.09,2.75,6.12,5.46,9.13,8.18c3.72,3.33,6.24,3.33,9.98,0
				c3.16-2.82,6.31-5.64,9.48-8.48l4.1-3.67l9.13-8.26c0.25-0.2,0.44-0.37,0.63-0.54l4.32-3.88c12.2-10.93,24.39-21.88,36.59-32.8
				c2.06-1.85,9.13-8.69,14.82-14.18c3.59-3.47,6.68-6.46,7.94-7.61c0.02-0.02,0.02-0.02,0.03-0.03c0.05-0.03,0.08-0.07,0.12-0.12
				c0.02-0.02,0.03-0.05,0.02-0.08c0.05-0.15,0.02-0.36-0.08-0.63C292.68,109.65,292.78,109.86,292.86,110.06z"/>
			<path class="st0" d="M292.86,110.06c-0.09-0.2-0.19-0.41-0.31-0.61c0.1,0.27,0.14,0.48,0.08,0.63c0.02,0.03,0,0.07-0.02,0.08
				c-0.03,0.05-0.07,0.08-0.12,0.12c-0.02,0.02-0.02,0.02-0.03,0.03c-1.26,1.16-4.35,4.15-7.94,7.61
				c-5.69,5.49-12.76,12.32-14.82,14.18c-12.2,10.93-24.39,21.88-36.59,32.8l-4.32,3.88c-0.19,0.17-0.37,0.34-0.63,0.54l-9.13,8.26
				l-4.1,3.67c-3.18,2.84-6.32,5.66-9.48,8.48c-3.74,3.33-6.25,3.33-9.98,0c-3.01-2.72-6.03-5.42-9.13-8.18l-12.73-11.34l-0.82-0.76
				c-0.46-0.42-0.83-0.78-1.21-1.12c-16.13-14.41-32.24-28.81-48.36-43.22c-0.39-0.34-5.74-5.64-10.05-9.91
				c-2.46-2.43-4.45-4.4-5.01-4.95l-0.14-0.14l-0.03-0.03c-0.03-0.03-0.09-0.07-0.14-0.12c-0.02,0.07-0.05,0.14-0.08,0.2
				c-0.03,0.07-0.07,0.14-0.08,0.2c0.02,0.03,0.03,0.03,0.05,0.05l0.1,0.1c0.03,0.03,0.08,0.07,0.14,0.14
				c0.68,0.68,2.67,2.62,4.9,4.83c4.32,4.28,9.67,9.59,10.06,9.94c16.11,14.4,32.24,28.81,48.36,43.22c0.39,0.34,0.76,0.7,1.21,1.1
				l0.82,0.78l8.75,7.78l3.99,3.55c3.08,2.75,6.1,5.46,9.13,8.16c1.94,1.75,3.59,2.62,5.25,2.62c1.67,0,3.33-0.87,5.29-2.62
				c3.16-2.8,6.31-5.63,9.47-8.46l12.92-11.64l0.32-0.29c0.26-0.22,0.44-0.37,0.63-0.54l4.32-3.88
				c12.19-10.95,24.39-21.88,36.58-32.8c2.07-1.85,9.14-8.7,14.84-14.19c3.54-3.42,6.61-6.39,7.87-7.56
				c0.02-0.02,0.03-0.03,0.05-0.05c0.02-0.02,0.07-0.05,0.12-0.1c0.05-0.03,0.08-0.08,0.12-0.15c0-0.02,0.02-0.02,0.02-0.03
				C292.96,110.25,292.93,110.15,292.86,110.06z M116.96,103.09c0.1,0.05,0.19,0.1,0.24,0.14c0.05,0.05,0.08,0.07,0.08,0.07
				c2.52,2.19,8.35,7.75,13.99,13.14c4.83,4.61,9.38,8.96,11.52,10.86l56.17,50.29c0.27,0.24,0.54,0.48,0.87,0.73
				c0.17,0.14,0.34,0.27,0.53,0.42l0.14,0.12l3.96-3.54c2.62-2.35,5.24-4.69,7.85-7.04c9.84-8.84,23.17-21.14,36.07-33.04
				c12.48-11.52,25.38-23.44,34.96-32.06c0.07-0.07,0.12-0.12,0.19-0.17c0.02-0.03,0.05-0.05,0.07-0.07
				c0.02-0.02,0.05-0.05,0.12-0.1c-0.08-0.03-0.17-0.05-0.25-0.07c-0.07-0.02-0.15-0.03-0.24-0.05c-0.07,0.05-0.14,0.1-0.2,0.17
				c-0.05,0.05-0.12,0.12-0.19,0.17c-9.57,8.62-22.37,20.43-34.74,31.85c-12.9,11.91-26.23,24.22-36.07,33.06
				c-2.6,2.35-5.22,4.67-7.85,7.02l-3.67,3.3c-0.14-0.1-0.27-0.2-0.39-0.31c-0.31-0.25-0.59-0.48-0.87-0.71l-56.17-50.29
				c-2.12-1.9-6.68-6.25-11.51-10.86c-5.52-5.27-11.23-10.73-13.82-13c-0.07-0.05-0.12-0.1-0.17-0.15c0,0,0,0-0.02,0
				c-0.03-0.03-0.14-0.1-0.25-0.19c-0.12,0.03-0.22,0.05-0.32,0.08c-0.14,0.02-0.25,0.05-0.37,0.09c0.07,0.02,0.14,0.03,0.2,0.07
				C116.86,103.04,116.91,103.08,116.96,103.09z"/>
			<path d="M306.29,116.91c0-2.97-0.49-6-1.41-8.77c-3.6-10.93-13.44-17.73-25.7-17.74H121.52c-0.78,0-1.63,0-2.45,0.08
				c-10.47,0.9-18,6.12-22.4,15.52c-0.73,1.56-1.19,3.28-1.65,4.95c-0.19,0.75-0.41,1.53-0.63,2.29l-0.02,115.77l0.02,0.05
				c0.05,0.25,0.12,0.51,0.2,0.76c0.14,0.53,0.29,1.05,0.41,1.58c2.94,12.44,13.29,20.48,26.36,20.5c19.97,0.02,39.93,0.02,59.9,0
				h46.01c7.17,0.02,14.45,0.02,21.76,0.02c10.16,0,20.41,0,30.56-0.03c15.23-0.03,26.74-11.42,26.75-26.5
				C306.39,184.93,306.37,149.44,306.29,116.91z M116.98,102.87c0.1-0.03,0.2-0.05,0.32-0.08c1.36-0.31,2.84-0.48,4.42-0.48h157.37
				c1.46,0,2.84,0.14,4.13,0.42c0.09,0.02,0.17,0.03,0.24,0.05c0.08,0.02,0.17,0.03,0.25,0.07l0,0c-0.07,0.05-0.1,0.08-0.12,0.1
				c-0.02,0.02-0.05,0.03-0.07,0.07c-0.07,0.05-0.12,0.1-0.19,0.17c-9.59,8.62-22.49,20.53-34.96,32.06
				c-12.9,11.9-26.23,24.2-36.07,33.04c-2.62,2.35-5.24,4.69-7.85,7.04l-3.96,3.54l-0.14-0.12c-0.19-0.15-0.36-0.29-0.53-0.42
				c-0.32-0.25-0.59-0.49-0.87-0.73L142.8,127.3c-2.14-1.9-6.7-6.25-11.52-10.86c-5.64-5.39-11.47-10.95-13.99-13.14
				c0,0-0.03-0.02-0.08-0.07c-0.05-0.03-0.14-0.08-0.24-0.14c-0.05-0.02-0.1-0.05-0.15-0.07c-0.07-0.03-0.14-0.05-0.2-0.07
				C116.72,102.92,116.84,102.89,116.98,102.87z M279.43,240c-11.71,0.02-23.44,0.02-35.15,0.02H121.45
				c-7.56-0.02-12.93-3.96-14.75-10.83c-0.41-1.55-0.46-3.21-0.46-4.76c-0.02-36.08-0.03-71.95-0.02-106.59
				c0-2.82,0.51-5.32,1.5-7.46c0.02-0.07,0.05-0.14,0.08-0.2c0.03-0.07,0.07-0.14,0.08-0.2c0.05,0.05,0.1,0.08,0.14,0.12l0.03,0.03
				l0.14,0.14c0.56,0.54,2.55,2.52,5.01,4.95c4.3,4.27,9.65,9.57,10.05,9.91c16.11,14.41,32.23,28.81,48.36,43.22
				c0.37,0.34,0.75,0.7,1.21,1.12l0.82,0.76l12.73,11.34c3.09,2.75,6.12,5.46,9.13,8.18c3.72,3.33,6.24,3.33,9.98,0
				c3.16-2.82,6.31-5.64,9.48-8.48l4.1-3.67l9.13-8.26c0.25-0.2,0.44-0.37,0.63-0.54l4.32-3.88c12.2-10.93,24.39-21.88,36.59-32.8
				c2.06-1.85,9.13-8.69,14.82-14.18c3.59-3.47,6.68-6.46,7.94-7.61c0.02-0.02,0.02-0.02,0.03-0.03c0.05-0.03,0.08-0.07,0.12-0.12
				c0.02-0.02,0.03-0.05,0.02-0.08c0.05-0.15,0.02-0.36-0.08-0.63c-0.36-0.66-0.76-1.27-1.22-1.85c0.63,0.75,1.04,1.39,1.22,1.85
				c0.12,0.2,0.22,0.41,0.31,0.61c0.07,0.08,0.1,0.19,0.14,0.27c0.42,0.88,0.76,1.84,1.04,2.86c0.42,1.61,0.46,3.42,0.46,4.96
				c0.02,35.59,0.02,71.78,0.02,106.79C294.51,234.09,288.6,240,279.43,240z"/>
		</g>
	</g>
</g>
</svg>
