<svg id="Layer_1" data-name="Layer 1" xmlns="http://www.w3.org/2000/svg" width="116.95" height="200" viewBox="0 0 116.95 200"><path d="M156.31,9.54a22.4,22.4,0,0,0-5-5.18A24,24,0,0,0,141.91,0L60.85,0,60.4.25l-.15.09C50.09,2.15,42.66,11.76,42.94,22.81c.12,4.25.09,8.56.06,12.72v1.94c0,1.28,0,2.56,0,3.85V62.13q0,57.24,0,114.48a31.12,31.12,0,0,0,.53,6.31A20.93,20.93,0,0,0,64.3,200h2.89l31.26,0H138c12.82,0,21.82-9.29,21.87-22.59q0-4.74,0-9.47V70.47q0-9.63,0-19.26,0-14.24,0-28.45h0C159.88,20.79,159.88,14.85,156.31,9.54ZM54.59,20.44A9.13,9.13,0,0,1,62.8,12c.81-.08,1.59-.16,2.35-.16H90.81q23.46,0,46.93,0c4.83,0,7.82,1.72,9.67,5.59a7.43,7.43,0,0,1,.83,2.83c.09,2.84.08,5.62.07,8.57v.78c0,.7,0,5.23,0,6.76H54.55c0-.63,0-3.38,0-4.16,0-1.26,0-2.5,0-3C54.47,26.32,54.42,23.38,54.59,20.44Zm93.73,28v96.86H54.59V48.45Zm-.06,131.11a9.12,9.12,0,0,1-8.18,8.47,22.7,22.7,0,0,1-2.37.16H111.52q-23.19,0-46.41,0c-4.18,0-6.84-1.2-8.61-3.88a10.83,10.83,0,0,1-1.86-4.8c-.21-2.78-.18-5.57-.14-8.52v-.39c0-.78,0-10.94,0-13.26h93.77c0,2.36,0,12.64,0,13.49,0,1.26,0,2.6,0,4C148.39,176.39,148.36,178,148.26,179.56Z" transform="translate(-42.93)"/><path d="M109.29,172.53a8.55,8.55,0,0,1-2.44,5.8,7.94,7.94,0,0,1-5.61,2.49h-.12a7.88,7.88,0,0,1-5.66-2.43,8.62,8.62,0,0,1-2.5-6.06,8.44,8.44,0,0,1,2.44-6,8,8,0,0,1,5.74-2.37h.1a7.91,7.91,0,0,1,5.77,2.53A8.46,8.46,0,0,1,109.29,172.53Z" transform="translate(-42.93)"/><path d="M114.65,24.26A5.78,5.78,0,0,1,113,28.38a6.06,6.06,0,0,1-4.23,1.69c-2.41,0-4.87.06-7.32.06s-4.83,0-7.24-.06a6.19,6.19,0,0,1-4.46-1.88,5.78,5.78,0,0,1-1.5-4.14c.12-3.31,2.66-5.64,6.18-5.7,1.33,0,2.68,0,4,0h5.3c1.6,0,3.25,0,4.87,0A5.84,5.84,0,0,1,114.65,24.26Z" transform="translate(-42.93)"/></svg>