<svg id="Layer_1" data-name="Layer 1" xmlns="http://www.w3.org/2000/svg" width="160.61" height="200" viewBox="0 0 160.61 200"><path d="M152.22,45.16C141.07,22.57,122.73,8.05,97.68,2A84.21,84.21,0,0,0,89.28.56C88,.38,86.69.21,85.39,0H74.81L72.7.28c-1.51.19-3.07.4-4.61.63a80.27,80.27,0,0,0-36.36,15.6A79.33,79.33,0,0,0,5.2,52.2a78.4,78.4,0,0,0,.34,57c5.53,14.43,13.66,28.51,24.85,43.06C42.64,168.21,57.53,183.2,75.9,198.1a7.16,7.16,0,0,0,4.46,1.9,6.67,6.67,0,0,0,4.4-2q3.26-2.9,6.53-5.75c6.4-5.63,13-11.44,19.15-17.54,18.9-18.77,32.78-38.46,42.42-60.19C163.4,90.76,163.2,67.42,152.22,45.16Zm-10,64.24c-9.68,21.68-24.16,41.71-44.3,61.23-3.87,3.76-7.82,7.3-12,11.05-1.85,1.68-3.73,3.36-5.61,5.08-1.48-1.31-2.93-2.59-4.38-3.85-3.22-2.84-6.28-5.52-9.29-8.32a223.51,223.51,0,0,1-34.41-39.81c-8.41-12.65-13.94-23.65-17.4-34.59a65.92,65.92,0,0,1-.47-38.45A67.31,67.31,0,0,1,43.76,22.37,65.74,65.74,0,0,1,79.67,11.73a71.47,71.47,0,0,1,7.82.43c18.91,2.09,34.61,10.83,46.68,26a65.52,65.52,0,0,1,13,27.67A69.94,69.94,0,0,1,142.25,109.4Z"/><path d="M116.5,45.32A50.89,50.89,0,0,0,80.35,30.06h-.27c-27.73,0-50.48,22.75-50.78,50.83A50,50,0,0,0,43.86,116.7a51,51,0,0,0,36.3,15.4h.32c27.82,0,50.54-22.73,50.73-50.82A50.42,50.42,0,0,0,116.5,45.32ZM80.35,120.37h-.23A38.69,38.69,0,0,1,52.69,109,39.43,39.43,0,0,1,44,96.17a38.89,38.89,0,0,1-3-15.08A39.39,39.39,0,0,1,80.16,41.8h.23a39.37,39.37,0,0,1,39.08,39.28A39.41,39.41,0,0,1,80.35,120.37Z"/></svg>