<?xml version="1.0" encoding="utf-8"?>
<!-- Generator: Adobe Illustrator 24.3.0, SVG Export Plug-In . SVG Version: 6.00 Build 0)  -->
<svg version="1.1" id="Layer_1" xmlns="http://www.w3.org/2000/svg" xmlns:xlink="http://www.w3.org/1999/xlink" x="0px" y="0px"
	 viewBox="0 0 379.91 322.72" style="enable-background:new 0 0 379.91 322.72;" xml:space="preserve">
<g>
	<g>
		<g>
			<path d="M259.14,116.58c-10.72-21.73-28.37-35.7-52.47-41.53c-2.65-0.64-5.41-1.01-8.08-1.37c-1.22-0.17-2.49-0.34-3.74-0.54
				h-10.18c-0.68,0.1-1.35,0.18-2.03,0.27c-1.45,0.18-2.95,0.38-4.43,0.61c-13,2.12-24.77,7.16-34.98,15
				c-11.8,9.04-20.38,20.6-25.52,34.34c-6.78,18.15-6.67,36.6,0.33,54.86c5.32,13.88,13.14,27.43,23.9,41.42
				c11.79,15.32,26.11,29.74,43.78,44.07c1.51,1.22,2.91,1.83,4.29,1.83c1.41,0,2.8-0.64,4.24-1.92c2.08-1.86,4.18-3.7,6.28-5.54
				c6.15-5.41,12.51-11,18.42-16.87c18.18-18.06,31.53-37,40.81-57.9C269.9,160.45,269.7,138,259.14,116.58z M249.55,178.38
				c-9.31,20.86-23.24,40.13-42.62,58.91c-3.72,3.61-7.52,7.02-11.54,10.63c-1.78,1.61-3.59,3.23-5.4,4.88
				c-1.42-1.26-2.82-2.49-4.21-3.7c-3.1-2.73-6.04-5.31-8.94-8c-13.46-12.53-24.29-25.06-33.1-38.3
				c-8.09-12.17-13.41-22.75-16.74-33.28c-3.82-12.14-3.98-24.58-0.45-36.99c4.58-16.09,14.08-28.83,28.25-37.87
				c10.67-6.81,22.27-10.24,34.55-10.24c2.48,0,4.98,0.14,7.52,0.42c18.19,2.01,33.3,10.42,44.91,24.99
				c6.22,7.82,10.41,16.77,12.47,26.62C257.21,150.64,255.63,164.75,249.55,178.38z"/>
		</g>
		<g>
			<path d="M224.78,116.74c-9.28-9.4-21.63-14.61-34.78-14.68h-0.26c-26.67,0-48.56,21.88-48.85,48.9
				c-0.14,12.89,4.84,25.12,14.01,34.45c9.31,9.47,21.71,14.73,34.92,14.81h0.31c26.76,0,48.62-21.87,48.8-48.89
				C239.02,138.35,233.99,126.06,224.78,116.74z M190,188.94h-0.22c-9.9,0-19.27-3.89-26.39-10.97c-3.61-3.59-6.42-7.77-8.32-12.31
				c-1.9-4.54-2.9-9.46-2.9-14.51c-0.02-20.72,16.87-37.68,37.65-37.8h0.22c9.9,0,19.27,3.9,26.4,10.99
				c7.23,7.19,11.21,16.71,11.2,26.8C227.64,171.86,210.75,188.81,190,188.94z"/>
		</g>
	</g>
</g>
</svg>
