<svg id="Layer_1" data-name="Layer 1" xmlns="http://www.w3.org/2000/svg" width="150.06" height="200" viewBox="0 0 150.06 200"><path d="M43.79,81V78.61c.05-8.57-.21-17.17.21-25.72a56.18,56.18,0,0,1,111.53-5.76,72.79,72.79,0,0,1,.73,10.53c.11,7.06,0,14.12,0,21.16v2.07a64.33,64.33,0,0,1,6.85,1.63C170.63,85.24,175,92,175,100.66v79.67c0,8-3.17,14.3-10.6,17.75a20.29,20.29,0,0,1-8.19,1.82Q100,200.07,43.8,200c-10.94,0-18.71-8-18.79-19.22-.08-10.93,0-21.85,0-32.78V100.65c0-9.32,5.1-16.32,13.48-18.68C40.09,81.56,41.76,81.4,43.79,81ZM100,93.75H45.27c-5.76,0-7.74,2-7.74,7.7v78.43c0,5.58,2.07,7.63,7.64,7.63H154.92c5.57,0,7.64-2,7.65-7.63V101.25c0-5.47-2.06-7.49-7.55-7.49ZM143.7,81.17c0-9.16.25-18.09,0-27-.9-27-26.51-46.62-52.88-40.72-20.6,4.61-34.24,21.6-34.44,43-.07,7.54,0,15.08,0,22.61,0,.67.08,1.34.12,2.09Z" transform="translate(-24.97)"/><path d="M119.42,130.46a19.36,19.36,0,0,1-12.31,18v13.19a7.07,7.07,0,0,1-14.14,0V148.51a19.37,19.37,0,1,1,26.45-18Z" transform="translate(-24.97)"/></svg>