<?xml version="1.0" encoding="utf-8"?>
<!-- Generator: Adobe Illustrator 24.3.0, SVG Export Plug-In . SVG Version: 6.00 Build 0)  -->
<svg version="1.1" id="Layer_1" xmlns="http://www.w3.org/2000/svg" xmlns:xlink="http://www.w3.org/1999/xlink" x="0px" y="0px"
	 viewBox="0 0 379.91 322.72" style="enable-background:new 0 0 379.91 322.72;" xml:space="preserve">
<style type="text/css">
	.st0{stroke:#020203;stroke-width:0.25;stroke-miterlimit:10;}
</style>
<g>
	<g>
		<path class="st0" d="M273.2,207.89c-8.22-8.71-16.74-17.15-25.37-25.45c-5.15-4.95-12.75-5.83-18.99-2.34
			c-2.96,1.67-5.55,4.1-8.07,6.45c-3.46,3.23-6.69,6.7-10.1,10.14c-2.78-1.55-5.45-2.86-7.95-4.45
			c-8.78-5.59-16.58-12.35-23.68-19.92c-6.92-7.39-13.32-15.16-17.85-24.31c-0.57-1.16-0.4-1.73,0.47-2.6
			c4.52-4.5,9.17-8.91,13.38-13.69c5.68-6.46,5.74-16.07-0.11-22.34c-7.88-8.45-15.97-16.73-24.4-24.62
			c-7.92-7.41-16.86-7.45-25.09-0.3c-5.41,4.69-10.26,10.03-15.28,15.16c-3.79,3.87-6.16,8.56-7.22,13.86
			c-0.43,2.13-0.57,4.31-0.85,6.47v2.55c0.42,3.18,0.66,6.4,1.28,9.53c1.94,9.77,5.46,19.01,9.97,27.84
			c16.02,31.4,38.97,56.58,68.79,75.42c11.89,7.51,24.4,13.88,38.12,17.47c3.86,1.01,7.87,1.46,11.81,2.18
			c0.41,0.07,0.81,0.21,1.21,0.32h6.94c0.41-0.12,0.8-0.29,1.21-0.34c5.97-0.77,11.37-2.98,15.68-7.15
			c5.63-5.44,11.17-11.03,16.35-16.9C279.35,224.16,279.3,214.36,273.2,207.89z M265.16,224.39c-0.82,1.04-1.78,1.99-2.71,2.95
			c-3.57,3.66-7.2,7.25-10.7,10.96c-4.14,4.38-9.2,6.42-16.12,6.35c-5.66-0.26-12.09-1.53-18.29-3.82
			c-26.33-9.74-48.51-25.53-67.24-46.27c-10.64-11.78-19.83-24.58-26.9-38.84c-4.03-8.12-7.44-16.49-9.28-25.4
			c-1.19-5.75-1.86-11.63,0.34-17.25c1-2.58,2.71-5.04,4.59-7.09c4.07-4.43,8.44-8.59,12.74-12.81c4.36-4.29,8.31-4.24,12.67,0.09
			c6.93,6.91,13.85,13.84,20.77,20.77c0.52,0.52,1.02,1.05,1.48,1.61c2.82,3.42,2.92,6.76-0.14,9.98c-4.22,4.45-8.64,8.73-13.05,13
			c-4.41,4.27-4.93,6.89-2.39,12.49c4.71,10.38,11.7,19.14,19.35,27.44c8.66,9.39,18.25,17.68,29.27,24.23
			c2.4,1.42,4.91,2.68,7.4,3.95c3.71,1.9,7.08,1.36,10.16-1.67c4.25-4.18,8.45-8.42,12.68-12.62c0.64-0.64,1.29-1.29,2.01-1.85
			c3.26-2.56,6.7-2.47,9.72,0.36c2.49,2.32,4.85,4.78,7.27,7.18c4.73,4.72,9.47,9.45,14.2,14.18c0.69,0.69,1.37,1.39,1.99,2.14
			C267.68,217.66,267.76,221.08,265.16,224.39z"/>
	</g>
</g>
</svg>
