<svg id="Layer_1" data-name="Layer 1" xmlns="http://www.w3.org/2000/svg" width="235.47" height="200" viewBox="0 0 235.47 200"><path d="M156.4,107.77h11.11c5.7,0,11.38-.07,17.08,0,5.5.09,8.69,5.41,6,9.92a5.91,5.91,0,0,1-5.19,3.18c-12,0-24,.08-36,0a6.2,6.2,0,0,1-6.14-6.24q-.11-22.22,0-44.44A6.38,6.38,0,0,1,150,63.93a6.47,6.47,0,0,1,6.36,6.7c0,11.44,0,22.9,0,34.34Z" transform="translate(0 0)"/><path d="M77.72,119.84H99.43a14.65,14.65,0,0,0,2-.07,5.3,5.3,0,0,0,4.62-5.72c-.13-3.13-2.35-5.16-5.72-5.16q-11.43,0-22.88,0H8.8c-1.33,0-2.67,0-4,0A5.12,5.12,0,0,0,0,113.65a5.28,5.28,0,0,0,3.72,5.89,10.64,10.64,0,0,0,2.88.29H77.72ZM66.85,135.61H32.5c-1,0-2,0-3,0-1.92.14-3.41,2.13-3.6,4.74-.21,2.79.89,5.21,2.8,5.89a6.21,6.21,0,0,0,2.18.29H70.44a85.65,85.65,0,0,0,164.44-22.39c2.27-20.22-2-39.09-13.16-56.1C206.32,44.71,184.3,31.94,156.55,29V13.18c3.65,0,7.14.07,10.63,0A6.68,6.68,0,0,0,174,6.58c0-3.71-2.92-6.52-7-6.56-3.56,0-7.13,0-10.69,0-7.89,0-15.78,0-23.67,0-3.4,0-5.91,1.8-6.72,4.66-1.26,4.38,1.82,8.37,6.62,8.49,3.48.08,7,0,10.55,0V29C119.24,31.41,99.34,41.38,84,59.76a87,87,0,0,0-13.7,22.39H32.5c-1,0-2,0-3,0-1.92.14-3.41,2.13-3.6,4.73-.21,2.8.89,5.22,2.8,5.9a6.45,6.45,0,0,0,2.18.29H101a8.49,8.49,0,0,0,1.51-.07c2.15-.37,3.59-2.74,3.49-5.72s-1.77-5.16-4.31-5.16H85A76.52,76.52,0,0,1,95.7,66.36c2.18-2.44,22.94-24.4,54.06-24.46,39.81-.08,72.41,32.44,72.52,72.33a72.49,72.49,0,0,1-72.42,72.57c-29.56,0-52.12-18.08-63.77-40.23h15a9.54,9.54,0,0,0,1.51-.06c2.15-.37,3.59-2.75,3.49-5.73s-1.77-5.16-4.31-5.16H66.85Z" transform="translate(0 0)"/></svg>